<?xml version="1.0" standalone="no"?>
<!DOCTYPE svg PUBLIC "-//W3C//DTD SVG 20010904//EN"
 "http://www.w3.org/TR/2001/REC-SVG-20010904/DTD/svg10.dtd">
<svg version="1.0" xmlns="http://www.w3.org/2000/svg"
 width="350.000000pt" height="350.000000pt" viewBox="125 10 350 350"
 preserveAspectRatio="xMidYMid meet">
<g transform="translate(0.000000,567.000000) scale(0.100000,-0.100000)"
fill="#ffffff" stroke="none">
<path d="M2447 4246 c-21 -8 -57 -27 -80 -42 -37 -25 -51 -29 -127 -30 -47 0
-92 -3 -100 -7 -8 -3 -67 -11 -130 -17 -449 -43 -500 -84 -486 -384 l7 -141
-58 -2 c-77 -2 -192 -44 -269 -99 -58 -41 -143 -142 -171 -204 -74 -158 -78
-330 -13 -499 77 -199 244 -352 470 -431 115 -40 301 -38 411 5 11 4 31 -14
69 -67 30 -40 82 -101 115 -135 l61 -61 -100 -6 c-134 -8 -609 -12 -871 -8
-115 2 -218 3 -227 3 -25 -1 -77 -49 -98 -92 -52 -100 -7 -209 138 -337 314
-276 825 -458 1427 -507 642 -53 1285 29 1893 239 173 60 430 179 514 237 14
11 29 19 33 19 15 0 135 88 189 139 70 66 116 136 139 210 29 92 16 176 -37
236 l-31 35 -245 -15 c-320 -19 -494 -33 -554 -46 -27 -5 -51 -8 -53 -5 -2 2
11 19 29 39 19 19 49 58 68 86 l35 51 66 0 c36 0 70 -5 76 -11 6 -6 37 -13 69
-16 69 -6 149 20 203 64 32 28 36 37 58 152 l6 34 -38 -6 c-26 -4 -57 0 -99
14 -66 23 -146 22 -184 -2 -32 -20 -34 -7 -9 52 60 136 119 359 148 555 18
123 21 178 16 314 -7 252 -51 394 -149 486 -123 115 -258 136 -993 153 -335 8
-419 8 -817 -4 l-178 -5 -14 29 c-9 16 -26 31 -38 35 -29 7 -26 8 -71 -8z m93
-48 l29 -33 153 6 c601 24 1705 -12 1613 -53 -16 -7 -15 -7 7 -3 35 7 89 -5
81 -18 -4 -6 -1 -7 7 -2 8 5 18 2 26 -9 7 -10 16 -18 21 -19 4 -1 7 -5 5 -9
-3 -11 16 -10 20 1 4 11 58 -37 75 -67 7 -12 10 -28 7 -36 -3 -8 -1 -17 5 -21
7 -4 8 1 4 12 -6 15 -4 16 9 5 20 -16 51 -109 42 -124 -4 -6 -3 -8 4 -4 6 4
10 -1 10 -11 -1 -10 2 -29 6 -43 6 -20 5 -22 -4 -10 -10 13 -11 12 -6 -3 3
-10 6 -28 6 -40 0 -18 2 -19 11 -7 8 12 10 8 7 -17 -3 -18 -1 -30 2 -28 10 6
10 -294 0 -345 -5 -25 -19 -106 -30 -180 -12 -74 -25 -139 -30 -145 -4 -5 -13
-36 -20 -67 -7 -32 -17 -58 -22 -58 -4 0 -7 -3 -7 -7 1 -5 0 -10 -1 -13 -1 -3
-3 -14 -5 -25 -9 -54 -38 -116 -52 -111 -10 4 -12 2 -4 -11 6 -12 4 -24 -7
-41 -15 -23 -14 -25 8 -42 18 -13 28 -16 37 -8 25 20 139 22 189 3 28 -11 59
-15 80 -12 19 3 34 2 34 -4 0 -5 -8 -9 -17 -9 -14 0 -15 -2 -4 -9 8 -5 10 -14
6 -22 -5 -7 -9 -24 -10 -38 -1 -14 -7 -25 -13 -23 -7 1 -11 -1 -11 -5 3 -20
-2 -31 -17 -37 -15 -6 -15 -4 -3 10 13 16 12 16 -8 5 -14 -7 -20 -17 -17 -26
6 -14 -13 -21 -40 -16 -5 1 -13 -4 -17 -10 -10 -16 -126 -17 -156 -1 -12 7
-54 12 -93 12 -58 0 -72 -3 -77 -17 -4 -10 -13 -24 -20 -31 -11 -12 -16 -12
-31 0 -15 12 -16 11 -4 -4 11 -13 11 -20 0 -37 -7 -12 -16 -21 -20 -21 -5 0
-8 -6 -8 -14 0 -7 -8 -20 -17 -27 -15 -12 -16 -12 -8 1 6 12 5 13 -6 2 -16
-15 -20 -72 -4 -72 5 0 66 7 135 15 69 8 139 14 155 14 17 -1 50 2 75 5 53 7
151 13 346 22 134 7 143 6 163 -13 23 -21 31 -69 16 -94 -7 -12 -6 -12 7 -1
14 12 17 10 20 -15 4 -38 -10 -117 -22 -121 -6 -2 -10 -14 -10 -27 0 -13 -7
-31 -16 -39 -8 -9 -12 -16 -7 -16 4 0 -1 -7 -11 -15 -11 -8 -17 -15 -13 -15 5
0 2 -6 -5 -14 -7 -8 -16 -12 -20 -9 -5 2 -8 -2 -8 -10 0 -19 -44 -59 -55 -50
-4 5 -5 3 -2 -3 3 -6 -2 -17 -12 -25 -48 -39 -82 -59 -91 -54 -6 4 -9 3 -8 -2
2 -4 -1 -8 -5 -8 -5 0 -13 -8 -18 -17 -6 -10 -19 -18 -30 -18 -11 0 -18 -4
-15 -9 6 -9 -52 -38 -67 -33 -4 1 -10 -4 -13 -12 -3 -9 -13 -12 -22 -9 -9 4
-14 3 -10 -2 8 -8 -101 -69 -109 -61 -3 3 -12 -2 -21 -10 -9 -10 -24 -13 -41
-9 -16 3 -21 2 -13 -3 13 -9 -68 -50 -173 -87 -27 -9 -60 -22 -72 -27 -12 -6
-29 -8 -38 -4 -9 3 -14 2 -11 -3 9 -14 -48 -30 -67 -19 -13 7 -17 6 -15 -4 2
-8 -7 -13 -24 -13 -14 1 -24 -3 -22 -7 2 -4 -4 -7 -13 -7 -10 0 -43 -9 -73
-19 -30 -11 -68 -22 -85 -23 -16 -2 -35 -7 -42 -12 -7 -5 -17 -6 -22 -3 -5 4
-12 2 -16 -4 -4 -6 -11 -8 -16 -4 -5 3 -17 0 -25 -7 -11 -9 -20 -9 -40 0 -34
15 -42 14 -18 -3 19 -15 19 -15 -1 -15 -11 0 -67 -9 -123 -20 -57 -11 -110
-17 -118 -14 -8 3 -14 1 -14 -4 0 -5 -46 -15 -102 -22 -227 -29 -410 -39 -648
-36 -233 3 -303 6 -430 21 -93 11 -103 13 -175 23 -38 6 -78 10 -88 11 -10 0
-16 3 -14 8 3 4 -14 8 -37 9 -32 2 -160 32 -241 57 -5 1 -28 6 -50 11 -34 7
-37 9 -20 17 16 7 15 8 -8 4 -32 -4 -157 38 -136 47 8 3 3 5 -11 4 -32 -1
-121 33 -114 44 3 5 -2 6 -11 3 -9 -4 -23 0 -33 8 -9 9 -30 20 -47 26 -16 6
-23 11 -15 12 8 1 2 5 -15 9 -16 4 -29 12 -28 19 2 6 -3 9 -10 6 -8 -3 -33 7
-58 20 -24 14 -39 26 -34 26 6 1 -8 9 -31 20 -22 10 -47 27 -55 36 -12 15 -12
17 0 9 10 -5 12 -4 7 4 -4 6 -11 9 -16 6 -13 -8 -170 133 -170 153 0 6 -4 12
-10 12 -33 0 -58 161 -30 195 7 8 9 15 4 15 -4 0 5 14 21 30 16 17 35 28 43
25 7 -2 11 -1 8 3 -3 5 216 8 487 8 271 -1 544 1 608 4 108 5 115 6 117 26 1
12 -9 31 -23 44 -13 13 -22 27 -18 33 3 6 2 7 -4 4 -17 -10 -54 36 -43 53 5 8
10 20 10 25 -1 6 -5 2 -11 -7 -5 -10 -14 -18 -18 -18 -13 0 -62 80 -56 90 4 6
-1 7 -11 3 -11 -4 -15 -2 -12 8 2 7 -8 26 -24 41 l-28 28 -53 -21 c-81 -33
-249 -34 -345 -3 -80 26 -116 46 -104 59 4 5 2 5 -5 1 -17 -10 -64 4 -56 17 3
6 1 7 -5 3 -14 -9 -93 40 -89 56 1 7 -3 12 -8 13 -6 0 -24 10 -40 23 -29 21
-29 22 -11 37 11 8 15 15 9 15 -7 0 -15 -4 -18 -10 -10 -16 -28 -12 -22 4 4 9
1 13 -6 10 -7 -2 -18 5 -26 17 -11 19 -11 21 4 16 9 -4 14 -3 10 3 -3 6 -13
10 -21 10 -8 0 -14 5 -14 11 0 5 5 7 12 3 7 -4 8 -3 4 5 -4 6 -11 9 -15 6 -5
-2 -19 7 -31 20 -18 20 -21 28 -12 37 18 18 14 32 -5 17 -10 -8 -14 -9 -10 -2
4 6 3 14 -2 17 -5 4 -20 39 -33 79 -18 57 -23 94 -23 177 0 113 10 184 25 175
6 -3 7 1 4 10 -8 19 22 94 44 113 11 9 12 11 2 6 -10 -5 -9 -1 4 14 10 12 23
19 29 15 6 -4 8 0 4 10 -7 18 48 87 69 87 7 0 18 9 24 21 7 12 18 18 26 15 10
-4 12 -2 8 6 -5 8 -2 9 10 5 9 -4 15 -3 12 2 -14 21 210 89 247 75 7 -2 21 3
29 13 14 16 15 32 8 118 -9 107 -6 178 12 238 11 35 13 37 25 21 16 -22 17
-10 2 18 -8 15 -8 19 1 13 7 -4 18 2 26 13 8 12 21 19 29 16 8 -4 15 -1 15 6
0 6 5 8 10 5 6 -3 10 -2 10 4 0 6 17 13 38 16 20 3 57 10 82 15 106 21 122 22
114 8 -6 -10 -5 -11 8 -1 8 7 60 17 116 21 56 5 107 14 115 20 9 8 24 9 45 3
38 -11 126 0 167 21 17 8 37 13 45 11 13 -4 13 -3 0 6 -17 12 -15 15 25 29 52
18 75 14 105 -20z"/>
<path d="M2446 4141 c5 -11 3 -13 -10 -8 -9 4 -15 3 -12 -2 3 -5 -1 -15 -10
-22 -13 -10 -17 -10 -24 0 -5 9 -10 10 -14 2 -4 -6 -4 -11 0 -11 4 0 -3 -11
-16 -25 -24 -25 -58 -35 -44 -13 5 7 3 8 -5 4 -7 -5 -10 -14 -7 -22 5 -13 -42
-54 -61 -54 -16 0 -46 38 -39 48 7 12 -13 10 -32 -1 -19 -13 -52 -84 -46 -101
3 -8 12 -17 20 -20 9 -3 13 -10 10 -15 -3 -5 1 -12 10 -15 8 -3 12 -11 9 -16
-4 -6 -2 -9 4 -8 5 2 17 -6 25 -17 8 -11 16 -15 16 -10 0 6 26 8 69 5 44 -3
69 -1 68 5 -1 5 4 9 11 7 8 -1 12 3 10 10 -5 14 41 70 52 63 4 -3 14 2 21 11
10 12 23 14 54 10 30 -5 36 -4 25 5 -12 8 -7 9 19 5 18 -3 38 -6 43 -6 5 0 6
-5 2 -12 -5 -7 -3 -8 5 -4 7 5 19 0 27 -10 9 -11 13 -12 9 -4 -4 8 9 -3 29
-25 20 -22 34 -46 31 -53 -3 -7 -1 -11 4 -8 5 3 11 -4 15 -17 9 -36 7 -125 -4
-132 -6 -4 -8 -10 -5 -15 3 -4 -4 -19 -15 -31 -18 -21 -19 -22 -14 -4 5 16 4
17 -4 5 -6 -8 -8 -18 -6 -22 3 -5 -4 -16 -15 -26 -21 -17 -36 -82 -20 -82 14
0 11 -138 -3 -163 -7 -12 -13 -28 -14 -35 -5 -30 -15 -44 -28 -39 -9 4 -13 0
-11 -11 2 -16 -66 -94 -72 -82 -1 3 -8 -4 -16 -14 -9 -12 -19 -16 -27 -11 -8
5 -11 4 -7 -2 9 -14 -19 -37 -33 -28 -5 3 -10 1 -10 -5 0 -7 -9 -9 -22 -6 -13
3 -18 3 -12 1 12 -6 -5 -75 -18 -75 -3 0 -4 -8 -1 -18 2 -11 -7 -32 -22 -50
-27 -32 -47 -42 -42 -21 1 6 -5 14 -13 16 -9 3 -11 1 -5 -4 17 -13 11 -36 -10
-41 -11 -2 -33 -4 -50 -4 -25 0 -27 -1 -10 -8 19 -8 19 -8 -4 -17 -20 -8 -21
-11 -8 -16 10 -4 17 -12 17 -19 0 -7 7 -26 15 -42 8 -15 12 -33 8 -39 -4 -6
-1 -7 7 -2 10 6 12 4 7 -9 -4 -9 -3 -15 2 -12 9 6 78 -74 74 -86 -2 -4 4 -5
12 -2 11 5 13 2 9 -10 -3 -9 -11 -16 -17 -16 -6 0 -7 -3 -4 -6 4 -4 13 -1 22
6 17 14 21 1 5 -18 -5 -7 -2 -5 7 3 15 13 20 12 43 -9 24 -23 96 -53 85 -37
-2 5 2 14 10 21 8 7 15 19 15 27 0 8 4 11 10 8 6 -4 7 1 3 11 -5 13 -3 16 10
11 9 -3 17 -2 17 3 0 6 -5 10 -11 10 -5 0 -7 5 -4 10 4 6 11 8 16 4 6 -3 9 0
7 8 -4 19 41 80 54 72 7 -4 8 -2 4 4 -12 21 30 13 49 -8 19 -21 41 -28 29 -8
-5 8 -2 9 9 5 10 -3 17 -2 17 4 0 6 6 16 13 23 6 8 22 25 35 40 13 15 28 24
34 20 8 -5 9 -2 5 9 -8 22 9 22 22 0 6 -10 11 -13 11 -7 0 6 -7 17 -15 24 -9
7 -13 15 -10 18 3 3 13 -3 24 -12 14 -13 21 -14 27 -5 4 7 3 10 -4 5 -6 -3
-16 3 -22 14 -9 17 -6 28 19 62 17 23 31 37 31 30 0 -7 5 -12 11 -12 5 0 8 4
5 9 -4 5 8 4 25 -2 28 -11 33 -10 55 16 13 15 24 40 24 55 0 22 2 24 11 12 9
-13 10 -12 5 3 -3 10 -2 37 4 60 5 23 10 77 12 120 2 68 4 77 22 77 10 0 25
-8 32 -17 9 -12 13 -14 14 -5 0 7 5 10 10 7 6 -3 15 6 20 20 6 16 14 23 22 19
7 -5 8 -3 4 5 -5 7 -11 10 -14 6 -5 -5 -31 76 -36 115 -5 31 -18 60 -27 60 -6
0 -6 7 1 19 15 28 12 38 -4 16 -13 -18 -14 -18 -21 6 -4 13 -18 39 -31 58 -13
19 -21 38 -18 43 3 4 -1 8 -8 8 -7 1 5 10 27 22 22 12 34 23 28 25 -7 3 -13
11 -13 18 0 7 -7 16 -16 19 -9 4 -14 13 -10 22 3 9 2 12 -4 9 -6 -4 -26 7 -45
23 -18 17 -43 33 -54 37 -12 3 -21 11 -21 16 0 5 -7 9 -16 9 -8 0 -12 5 -9 10
4 6 3 10 -2 9 -20 -3 -34 2 -28 11 4 6 3 10 -2 9 -22 -4 -33 3 -34 19 0 10 -3
12 -6 4 -2 -6 -9 -9 -15 -6 -5 4 10 19 34 35 32 22 38 29 23 30 -13 0 -15 2
-6 6 30 12 -114 51 -163 44 -10 -1 -16 1 -13 6 3 4 -36 6 -87 5 l-92 -4 1 37
c1 20 -3 39 -8 42 -6 3 -7 1 -3 -5 11 -19 -5 -14 -21 6 -8 9 -11 11 -7 3z m16
-68 l3 -38 78 3 c74 4 277 -24 277 -37 0 -3 -14 -14 -30 -23 -17 -9 -30 -24
-30 -32 0 -8 40 -40 89 -70 98 -62 191 -133 191 -146 0 -4 -11 -11 -24 -14
-40 -10 -38 -33 14 -123 52 -90 74 -147 88 -225 9 -46 9 -46 -15 -37 -13 5
-38 9 -54 9 -29 0 -29 0 -29 -62 0 -86 -17 -182 -42 -242 -27 -64 -24 -61 -43
-42 -35 34 -62 21 -111 -55 -25 -39 -66 -93 -91 -120 l-45 -48 -28 20 c-22 17
-32 19 -48 10 -32 -17 -89 -92 -118 -155 -23 -50 -28 -55 -42 -44 -9 7 -28 22
-42 33 -59 46 -141 141 -168 195 l-30 58 39 6 c67 11 139 92 139 158 0 17 16
32 63 60 161 97 231 230 205 392 l-9 59 36 37 c41 42 55 83 55 160 0 62 -27
130 -62 161 -66 58 -160 74 -233 40 -37 -16 -95 -72 -95 -90 0 -4 -32 -6 -71
-4 -62 2 -73 5 -87 25 -8 13 -22 28 -30 35 -12 10 -13 18 -4 40 5 15 13 37 17
48 6 18 8 17 20 -12 7 -17 22 -36 33 -42 17 -9 28 -4 69 32 60 54 143 117 154
117 4 0 9 -17 11 -37z"/>
<path d="M2386 3997 c3 -10 9 -15 12 -12 3 3 0 11 -7 18 -10 9 -11 8 -5 -6z"/>
<path d="M2334 3970 c0 -13 4 -16 10 -10 7 7 7 13 0 20 -6 6 -10 3 -10 -10z"/>
<path d="M2696 3957 c3 -10 9 -15 12 -12 3 3 0 11 -7 18 -10 9 -11 8 -5 -6z"/>
<path d="M2950 3611 c0 -6 4 -13 10 -16 6 -3 7 1 4 9 -7 18 -14 21 -14 7z"/>
<path d="M2376 2927 c3 -10 9 -15 12 -12 3 3 0 11 -7 18 -10 9 -11 8 -5 -6z"/>
<path d="M2509 2763 c-13 -16 -12 -17 4 -4 16 13 21 21 13 21 -2 0 -10 -8 -17
-17z"/>
<path d="M2395 2700 c-3 -5 -1 -10 4 -10 6 0 11 5 11 10 0 6 -2 10 -4 10 -3 0
-8 -4 -11 -10z"/>
<path d="M2018 4113 c12 -2 30 -2 40 0 9 3 -1 5 -23 4 -22 0 -30 -2 -17 -4z"/>
<path d="M2058 4093 c7 -3 16 -2 19 1 4 3 -2 6 -13 5 -11 0 -14 -3 -6 -6z"/>
<path d="M2342 4084 c-7 -8 -8 -14 -3 -14 10 0 25 19 20 25 -2 1 -10 -3 -17
-11z"/>
<path d="M2267 4059 c7 -7 15 -10 18 -7 3 3 -2 9 -12 12 -14 6 -15 5 -6 -5z"/>
<path d="M4510 4041 c0 -6 7 -14 15 -17 12 -5 13 -10 4 -20 -6 -8 -9 -14 -6
-14 2 0 10 6 16 13 8 11 6 18 -9 32 -12 11 -20 13 -20 6z"/>
<path d="M1618 4003 c7 -3 16 -2 19 1 4 3 -2 6 -13 5 -11 0 -14 -3 -6 -6z"/>
<path d="M3035 3910 c-6 -18 2 -31 44 -70 28 -26 51 -53 51 -60 0 -6 5 -8 12
-4 8 5 9 2 5 -9 -3 -9 -1 -19 5 -23 7 -4 8 -3 4 4 -4 7 -4 12 1 12 4 0 14 -14
22 -30 11 -27 11 -34 -4 -56 -9 -14 -22 -23 -29 -21 -8 3 -11 -4 -10 -22 1
-14 3 -27 4 -28 1 -2 3 -6 4 -10 1 -5 9 -20 19 -34 10 -15 20 -35 22 -45 2
-11 9 -37 15 -59 21 -75 27 -115 23 -138 -4 -19 2 -27 29 -40 35 -16 90 -16
226 3 90 12 255 13 248 1 -3 -4 6 -6 21 -3 19 4 24 2 18 -8 -5 -9 -4 -11 3 -6
7 4 28 4 47 0 27 -5 33 -9 25 -19 -8 -9 -4 -11 14 -8 17 4 28 -1 38 -16 7 -12
17 -21 22 -21 5 0 19 -11 32 -26 13 -14 41 -32 61 -40 47 -20 123 -82 123
-100 0 -8 4 -14 10 -14 5 0 12 -11 16 -25 3 -14 10 -25 14 -25 15 0 21 -52 8
-68 -8 -11 -4 -10 11 3 l24 20 -8 -25 c-4 -14 -4 -22 0 -18 4 4 17 -9 27 -30
46 -85 75 -86 98 -1 7 26 16 46 19 45 3 -2 7 8 8 22 0 15 15 79 32 142 17 63
34 141 37 173 4 31 10 57 13 57 3 0 6 24 6 53 0 28 2 56 4 61 4 8 2 199 -3
266 -1 19 -7 44 -14 56 -8 16 -8 24 1 34 9 10 9 11 0 6 -9 -5 -11 2 -8 26 4
24 3 27 -3 13 -8 -17 -10 -15 -15 14 -5 24 -15 36 -37 44 -16 6 -30 14 -30 17
0 4 -13 5 -30 2 -16 -2 -38 -1 -47 4 -10 4 -38 8 -63 9 -136 3 -427 17 -437
20 -6 2 -171 7 -366 11 l-355 7 -7 -23z m630 -16 c192 -6 598 -31 662 -40 36
-5 43 -11 56 -43 31 -76 41 -157 40 -311 -1 -177 -25 -340 -75 -510 -17 -58
-36 -122 -41 -142 -13 -45 -20 -47 -38 -10 -95 188 -160 271 -239 309 -25 12
-66 41 -91 66 -33 32 -68 52 -125 73 -69 25 -92 29 -179 28 -55 -1 -127 -7
-159 -13 -33 -6 -96 -11 -141 -11 l-82 0 -7 64 c-7 74 -38 173 -71 234 l-24
43 25 11 c28 13 39 45 30 84 -8 30 -96 127 -138 152 -15 9 -28 20 -28 24 0 8
240 5 625 -8z"/>
<path d="M3248 3863 c6 -2 18 -2 25 0 6 3 1 5 -13 5 -14 0 -19 -2 -12 -5z"/>
<path d="M4341 3684 c0 -11 3 -14 6 -6 3 7 2 16 -1 19 -3 4 -6 -2 -5 -13z"/>
<path d="M3256 3512 c-3 -5 1 -9 9 -9 8 0 12 4 9 9 -3 4 -7 8 -9 8 -2 0 -6 -4
-9 -8z"/>
<path d="M4136 3098 c3 -5 10 -6 15 -3 13 9 11 12 -6 12 -8 0 -12 -4 -9 -9z"/>
<path d="M4220 3045 c0 -8 4 -15 10 -15 5 0 7 7 4 15 -4 8 -8 15 -10 15 -2 0
-4 -7 -4 -15z"/>
<path d="M4216 3003 c-6 -14 -5 -15 5 -6 7 7 10 15 7 18 -3 3 -9 -2 -12 -12z"/>
<path d="M2417 3914 c-8 -8 3 -34 15 -34 7 0 6 5 -1 13 -6 8 -8 17 -4 20 3 4
4 7 1 7 -2 0 -7 -3 -11 -6z"/>
<path d="M2510 3900 c8 -5 20 -10 25 -10 6 0 3 5 -5 10 -8 5 -19 10 -25 10 -5
0 -3 -5 5 -10z"/>
<path d="M2461 3884 c0 -11 3 -14 6 -6 3 7 2 16 -1 19 -3 4 -6 -2 -5 -13z"/>
<path d="M1870 3880 c0 -5 5 -10 11 -10 5 0 7 5 4 10 -3 6 -8 10 -11 10 -2 0
-4 -4 -4 -10z"/>
<path d="M2397 3875 c-6 -15 10 -32 20 -21 4 3 1 6 -5 6 -6 0 -9 7 -6 15 4 8
4 15 1 15 -3 0 -7 -7 -10 -15z"/>
<path d="M2463 3852 c-15 -15 -31 -26 -35 -24 -4 1 -2 -9 4 -23 6 -14 17 -25
25 -25 7 0 13 -4 13 -9 0 -9 32 -7 48 3 14 8 30 -8 38 -38 5 -22 4 -27 -6 -21
-16 10 -3 -33 16 -52 20 -21 38 -15 59 19 27 46 23 123 -7 149 -18 16 -20 22
-9 29 10 6 7 8 -10 9 -13 0 -43 3 -66 5 -35 4 -46 1 -70 -22z m107 -7 c37 -19
50 -43 50 -92 0 -40 -25 -88 -40 -78 -5 3 -6 21 -3 40 4 24 0 43 -12 61 -15
23 -21 26 -57 20 -49 -8 -61 -1 -47 25 19 37 65 47 109 24z"/>
<path d="M2926 3866 c10 -8 21 -12 24 -10 5 6 -21 24 -34 24 -6 0 -1 -6 10
-14z"/>
<path d="M2017 3859 c-26 -15 -47 -70 -47 -120 0 -23 3 -39 7 -36 3 4 11 0 18
-9 9 -14 17 -8 54 40 24 31 48 53 54 49 5 -3 7 -1 3 5 -8 14 22 44 36 36 7 -4
8 -2 4 5 -4 6 -12 9 -17 5 -6 -3 -18 4 -28 15 -20 23 -55 27 -84 10z m63 -24
c11 -13 8 -22 -23 -53 -19 -20 -39 -50 -43 -66 l-7 -30 -9 25 c-11 29 -2 85
18 117 17 26 46 29 64 7z"/>
<path d="M2430 3859 c0 -5 5 -7 10 -4 6 3 10 8 10 11 0 2 -4 4 -10 4 -5 0 -10
-5 -10 -11z"/>
<path d="M1810 3847 c-28 -14 -31 -34 -20 -129 3 -34 2 -58 -3 -58 -5 0 -5 -6
1 -13 6 -7 13 -37 17 -67 3 -30 8 -69 11 -86 5 -35 39 -80 48 -65 3 5 1 11 -6
13 -15 5 -34 131 -44 278 l-7 105 42 11 c40 11 41 11 34 -10 -5 -11 -8 -51 -7
-87 1 -51 7 -77 26 -112 l25 -45 -33 -53 c-38 -59 -41 -74 -19 -82 9 -4 23 6
36 26 l23 32 -27 -24 c-15 -14 -27 -20 -27 -14 0 6 7 16 15 23 8 7 12 17 8 24
-3 6 -3 8 2 4 8 -8 45 53 45 74 0 6 -10 23 -22 36 -13 14 -17 22 -9 17 9 -5
12 -3 9 6 -3 8 -12 13 -19 11 -8 -2 -11 -1 -7 3 4 4 3 17 -1 29 -5 11 -5 48 0
81 5 39 4 64 -3 72 -13 16 -56 16 -88 0z"/>
<path d="M1556 3833 c-6 -14 -5 -15 5 -6 7 7 10 15 7 18 -3 3 -9 -2 -12 -12z"/>
<path d="M2997 3819 c7 -7 15 -10 18 -7 3 3 -2 9 -12 12 -14 6 -15 5 -6 -5z"/>
<path d="M2230 3763 c-49 -8 -75 -24 -104 -63 -22 -29 -35 -38 -48 -34 -10 3
-18 0 -18 -6 0 -6 4 -9 9 -5 5 3 12 1 15 -4 4 -5 2 -12 -4 -16 -6 -4 -22 -29
-36 -56 -13 -28 -31 -52 -39 -55 -7 -3 -11 -12 -8 -20 3 -9 -1 -14 -12 -14 -9
0 -14 -4 -11 -9 4 -5 3 -17 0 -26 -6 -14 -8 -14 -28 2 -18 16 -19 16 -7 1 7
-10 10 -25 7 -34 -5 -14 -9 -14 -23 -3 -12 10 -10 4 5 -18 16 -23 19 -33 10
-36 -7 -3 2 -6 20 -6 24 -1 31 -5 26 -13 -6 -10 -4 -10 7 -2 21 17 89 25 112
13 14 -8 18 -8 13 0 -8 13 4 14 22 2 26 -16 10 -55 -28 -68 -19 -7 -31 -12
-26 -12 5 -1 0 -9 -12 -19 -21 -18 -21 -19 -2 -49 10 -17 17 -34 14 -37 -2 -3
-1 -4 2 -1 4 2 25 -5 48 -17 27 -14 60 -21 96 -21 61 0 101 5 95 12 -5 5 26
30 38 31 5 0 5 -5 1 -12 -4 -7 -3 -8 5 -4 6 4 9 12 6 17 -4 5 -1 10 4 10 6 1
17 2 24 3 6 1 16 -3 20 -9 5 -6 7 -4 4 5 -2 8 -11 14 -18 12 -8 -1 -6 4 5 12
15 12 23 13 40 4 20 -11 20 -10 6 7 -14 17 -13 18 3 12 10 -4 16 -3 12 3 -3 5
13 28 35 51 22 23 39 44 37 46 -2 2 1 24 8 49 8 32 9 65 2 107 -5 34 -9 73 -8
87 1 18 -2 21 -8 11 -6 -9 -11 -10 -15 -2 -4 6 -4 16 -1 21 4 6 3 9 -2 8 -11
-4 -101 90 -94 98 3 3 -3 2 -13 -2 -13 -5 -17 -2 -14 12 2 12 -4 19 -17 21
l-20 3 20 -9 c11 -5 14 -10 7 -10 -7 -1 -23 5 -35 13 -25 16 -90 26 -127 19z
m128 -42 c106 -55 182 -168 182 -270 0 -61 -23 -121 -61 -161 -44 -47 -177
-122 -224 -128 -53 -6 -128 13 -150 38 -23 25 -16 63 12 70 58 14 81 70 44
104 -15 14 -36 17 -107 15 -49 -1 -91 0 -93 2 -11 11 204 336 226 342 48 12
136 6 171 -12z"/>
<path d="M2140 3641 c0 -6 4 -13 10 -16 6 -3 7 1 4 9 -7 18 -14 21 -14 7z"/>
<path d="M2390 3631 c0 -6 4 -13 10 -16 6 -3 7 1 4 9 -7 18 -14 21 -14 7z"/>
<path d="M2205 3610 c-3 -5 -1 -10 4 -10 6 0 11 5 11 10 0 6 -2 10 -4 10 -3 0
-8 -4 -11 -10z"/>
<path d="M2255 3598 c-27 -15 -35 -28 -35 -58 0 -36 18 -50 60 -50 48 0 80 28
80 69 0 25 -6 34 -26 41 -33 13 -54 12 -79 -2z m80 -45 c1 -13 0 -21 -3 -18
-2 2 -11 -2 -19 -10 -32 -33 -78 -8 -62 33 7 19 15 23 46 20 30 -2 37 -7 38
-25z"/>
<path d="M2166 3405 c4 -8 11 -15 16 -15 6 0 5 6 -2 15 -7 8 -14 15 -16 15 -2
0 -1 -7 2 -15z"/>
<path d="M2418 3333 c7 -3 16 -2 19 1 4 3 -2 6 -13 5 -11 0 -14 -3 -6 -6z"/>
<path d="M2405 3310 c3 -5 8 -10 11 -10 2 0 4 5 4 10 0 6 -5 10 -11 10 -5 0
-7 -4 -4 -10z"/>
<path d="M2440 3761 c0 -6 4 -13 10 -16 6 -3 7 1 4 9 -7 18 -14 21 -14 7z"/>
<path d="M2070 3735 c-13 -14 -19 -25 -14 -25 8 1 50 50 41 50 -2 0 -14 -11
-27 -25z"/>
<path d="M1930 3745 c0 -5 5 -17 10 -25 5 -8 10 -10 10 -5 0 6 -5 17 -10 25
-5 8 -10 11 -10 5z"/>
<path d="M2478 3743 c7 -3 16 -2 19 1 4 3 -2 6 -13 5 -11 0 -14 -3 -6 -6z"/>
<path d="M4465 3690 c-3 -5 -1 -10 4 -10 6 0 11 5 11 10 0 6 -2 10 -4 10 -3 0
-8 -4 -11 -10z"/>
<path d="M3026 3677 c3 -10 9 -15 12 -12 3 3 0 11 -7 18 -10 9 -11 8 -5 -6z"/>
<path d="M2530 3641 c0 -5 5 -13 10 -16 6 -3 10 -2 10 4 0 5 -4 13 -10 16 -5
3 -10 2 -10 -4z"/>
<path d="M1561 3604 c0 -11 3 -14 6 -6 3 7 2 16 -1 19 -3 4 -6 -2 -5 -13z"/>
<path d="M1791 3544 c0 -11 3 -14 6 -6 3 7 2 16 -1 19 -3 4 -6 -2 -5 -13z"/>
<path d="M2005 3549 c-4 -6 -5 -12 -2 -15 2 -3 7 2 10 11 7 17 1 20 -8 4z"/>
<path d="M1911 3364 c0 -11 3 -14 6 -6 3 7 2 16 -1 19 -3 4 -6 -2 -5 -13z"/>
<path d="M1495 3361 c-2 -4 -29 -13 -60 -20 -30 -7 -55 -16 -55 -21 0 -5 -6
-7 -13 -4 -7 2 -20 -9 -30 -26 -10 -16 -23 -30 -29 -30 -7 0 -6 6 2 15 7 9 8
15 2 15 -10 0 -25 -25 -27 -45 0 -5 -13 -36 -29 -68 -26 -53 -28 -64 -23 -145
4 -87 21 -137 68 -203 10 -14 16 -29 14 -33 -3 -3 -2 -4 1 -2 9 7 54 -36 48
-45 -3 -5 3 -6 12 -2 13 5 16 3 11 -9 -3 -10 0 -19 9 -22 10 -4 13 -2 8 7 -4
6 2 4 14 -7 12 -10 19 -23 15 -29 -3 -5 -1 -7 4 -4 12 8 73 -11 73 -22 0 -15
121 -41 187 -41 58 0 72 4 98 26 23 19 26 27 16 33 -7 5 -10 14 -7 20 4 6 3
11 -2 11 -10 0 -45 85 -45 107 0 7 -4 13 -7 13 -8 0 -24 58 -21 78 1 6 -3 12
-8 12 -6 0 -13 17 -16 38 -4 20 -15 61 -26 90 -21 59 -22 65 -11 58 4 -2 9 5
9 17 2 17 0 19 -7 7 -8 -13 -10 -12 -10 3 0 9 -4 17 -8 17 -4 0 -8 8 -9 18 -1
9 -6 42 -12 72 -7 30 -13 64 -14 75 -1 11 -9 25 -17 31 -18 14 -98 25 -105 15z
m98 -66 c44 -209 127 -483 177 -588 12 -26 20 -50 17 -53 -2 -3 -36 -7 -73
-10 -59 -5 -80 -2 -144 21 -139 51 -236 133 -289 245 -22 46 -26 69 -26 140 0
72 4 92 27 135 38 73 86 111 174 139 27 8 67 14 89 13 37 -2 40 -4 48 -42z"/>
<path d="M1326 3187 c3 -10 9 -15 12 -12 3 3 0 11 -7 18 -10 9 -11 8 -5 -6z"/>
<path d="M1395 2809 c-4 -6 -5 -12 -2 -15 2 -3 7 2 10 11 7 17 1 20 -8 4z"/>
<path d="M2600 3349 c0 -5 5 -7 10 -4 6 3 10 8 10 11 0 2 -4 4 -10 4 -5 0 -10
-5 -10 -11z"/>
<path d="M2576 3325 c-9 -26 -7 -32 5 -12 6 10 9 21 6 23 -2 3 -7 -2 -11 -11z"/>
<path d="M3182 3305 c0 -16 2 -22 5 -12 2 9 2 23 0 30 -3 6 -5 -1 -5 -18z"/>
<path d="M2595 3309 c-4 -6 -5 -12 -2 -15 2 -3 7 2 10 11 7 17 1 20 -8 4z"/>
<path d="M1941 3286 c-6 -7 -8 -22 -4 -31 5 -14 3 -16 -7 -10 -7 5 0 -8 16
-28 16 -20 32 -37 37 -37 4 0 7 -8 7 -17 0 -14 4 -13 22 6 30 33 28 78 -6 108
-31 26 -49 29 -65 9z m44 -22 c17 -11 25 -26 25 -45 0 -41 -14 -36 -43 16 -27
48 -22 55 18 29z"/>
<path d="M2536 3278 c3 -5 10 -6 15 -3 13 9 11 12 -6 12 -8 0 -12 -4 -9 -9z"/>
<path d="M1656 3213 c-4 -9 -3 -20 1 -24 4 -4 9 3 9 17 2 28 -1 31 -10 7z"/>
<path d="M3127 3204 c3 -8 1 -14 -5 -14 -5 0 -12 -27 -16 -59 -11 -100 -62
-220 -93 -221 -6 0 -15 -4 -18 -10 -3 -6 1 -7 9 -4 25 9 19 -11 -6 -25 -23
-12 -54 -11 -75 2 -7 4 -26 -15 -51 -50 -26 -39 -45 -57 -57 -55 -10 2 -14 -1
-10 -7 7 -13 -44 -63 -57 -55 -4 3 -7 0 -6 -8 2 -7 -18 -24 -44 -37 -39 -19
-48 -28 -49 -50 0 -14 0 -92 1 -173 1 -88 -3 -148 -8 -148 -5 0 -12 -9 -15
-20 -4 -16 -14 -20 -45 -20 -23 0 -45 -6 -52 -15 -7 -9 -19 -14 -27 -11 -8 3
-12 2 -9 -3 3 -5 -1 -22 -9 -37 -33 -63 -16 -80 78 -82 38 -1 73 -5 79 -8 7
-4 8 -2 4 4 -5 9 6 12 36 11 36 -1 39 -2 18 -9 -14 -5 -18 -8 -9 -9 19 -1 77
23 99 41 9 7 22 39 30 71 8 36 18 57 27 57 8 0 11 5 8 11 -9 13 3 81 13 75 4
-2 8 10 9 27 1 18 8 55 16 82 11 38 16 45 20 30 4 -12 5 -9 3 8 -4 32 12 105
26 124 5 7 7 16 4 22 -4 5 3 12 14 16 11 3 20 11 20 17 0 6 -7 5 -17 -3 -14
-12 -16 -12 -12 0 8 22 46 32 62 16 17 -16 7 -91 -11 -87 -16 3 -15 -1 7 -26
30 -35 95 -26 223 31 40 18 58 22 62 14 2 -7 5 -6 5 3 1 16 56 44 146 76 28
10 55 25 60 33 17 27 23 69 11 82 -8 9 -8 10 3 4 11 -6 13 -4 8 7 -4 11 1 18
14 21 24 6 40 -17 64 -90 9 -29 21 -55 26 -58 5 -4 9 -15 9 -26 0 -11 7 -22
15 -25 8 -4 15 -11 15 -18 0 -6 9 -19 20 -29 21 -18 28 -43 8 -31 -7 4 -8 3
-4 -5 4 -6 12 -9 17 -5 16 10 58 -35 54 -57 -2 -11 0 -17 6 -14 5 4 6 11 3 17
-4 6 -1 8 7 6 8 -3 13 -10 12 -16 -2 -7 4 -9 14 -5 12 5 14 3 8 -7 -5 -8 -3
-11 6 -8 7 2 23 -1 34 -7 59 -33 95 -58 95 -67 0 -5 4 -7 9 -4 5 3 11 -4 15
-17 3 -12 1 -23 -4 -25 -6 -2 -10 -8 -10 -13 0 -4 7 -6 15 -3 11 5 15 -1 15
-24 0 -43 -31 -70 -72 -63 -5 0 -8 -6 -8 -15 0 -12 -7 -15 -25 -12 -14 3 -25
1 -25 -3 0 -5 5 -9 10 -9 6 0 10 -7 10 -15 0 -8 -6 -12 -14 -9 -8 3 -17 1 -21
-5 -3 -7 0 -8 9 -5 15 6 18 -3 15 -33 -1 -17 51 -23 136 -18 79 6 93 9 113 31
12 14 22 30 23 37 0 7 2 26 4 42 1 17 4 76 5 132 2 81 -1 106 -14 118 -8 9
-14 21 -12 28 1 7 1 9 -1 5 -3 -5 -13 -3 -24 3 -11 5 -17 14 -14 20 4 5 -1 9
-9 9 -8 0 -18 9 -21 20 -3 11 -11 20 -18 20 -8 0 -8 3 1 12 7 7 12 17 12 22 0
6 -5 4 -10 -4 -8 -13 -11 -13 -22 -1 -10 10 -10 12 0 7 6 -4 12 -3 12 2 0 6
-7 13 -16 16 -11 4 -15 15 -12 36 2 16 0 26 -5 23 -5 -3 -8 16 -6 45 2 27 1
48 -2 46 -6 -3 -18 111 -20 190 -1 35 -2 38 -9 16 -7 -21 -8 -22 -9 -5 -1 11
-8 33 -16 49 -8 15 -12 33 -8 39 3 6 1 7 -6 3 -8 -5 -10 0 -7 18 3 15 1 24 -5
21 -5 -4 -7 -11 -4 -16 4 -5 2 -9 -3 -9 -11 0 -26 30 -23 43 1 5 -3 5 -9 2 -6
-4 -19 0 -28 8 -9 8 -30 20 -47 26 l-30 11 30 -6 c16 -3 26 -2 22 2 -21 22
-206 27 -315 10 -152 -24 -241 -21 -349 12 -26 8 -31 8 -26 -4z m57 -29 c58
-18 228 -20 307 -4 95 18 227 13 291 -11 110 -41 148 -115 174 -342 20 -172
41 -226 115 -300 l58 -58 -5 -127 c-4 -71 -11 -139 -18 -153 -11 -24 -15 -25
-114 -28 -56 -1 -102 -1 -102 2 0 26 31 61 67 77 49 21 59 45 49 114 -8 49
-48 91 -123 130 -138 71 -221 168 -258 302 -25 88 -68 115 -114 72 -20 -18
-22 -28 -16 -64 6 -43 6 -43 -32 -56 -21 -6 -96 -38 -167 -71 -70 -32 -160
-67 -198 -78 l-70 -19 6 26 c18 68 18 84 2 108 -20 30 -65 34 -89 7 -9 -9 -29
-69 -46 -132 -44 -166 -105 -370 -122 -405 l-14 -30 -130 -5 c-72 -3 -134 -2
-139 2 -13 10 13 65 40 83 13 8 41 15 63 15 64 0 71 24 71 229 l0 169 29 7
c40 9 179 145 217 213 1 1 13 -3 28 -9 20 -10 31 -10 49 0 55 30 135 205 139
307 1 24 2 44 3 44 0 0 22 -7 49 -15z"/>
<path d="M3142 2970 c0 -14 2 -19 5 -12 2 6 2 18 0 25 -3 6 -5 1 -5 -13z"/>
<path d="M3475 2859 c-4 -6 -5 -12 -2 -15 2 -3 7 2 10 11 7 17 1 20 -8 4z"/>
<path d="M2806 2473 c-6 -14 -5 -15 5 -6 7 7 10 15 7 18 -3 3 -9 -2 -12 -12z"/>
<path d="M1935 3200 c-3 -5 -1 -10 4 -10 6 0 11 5 11 10 0 6 -2 10 -4 10 -3 0
-8 -4 -11 -10z"/>
<path d="M2056 3187 c3 -10 9 -15 12 -12 3 3 0 11 -7 18 -10 9 -11 8 -5 -6z"/>
<path d="M2060 3155 c0 -8 29 -12 39 -5 9 5 4 8 -13 8 -14 0 -26 -2 -26 -3z"/>
<path d="M2030 3115 c-7 -13 -10 -31 -7 -39 3 -8 -2 -23 -11 -33 -16 -15 -16
-16 0 -11 11 5 22 -1 32 -18 9 -13 26 -24 39 -25 21 0 21 -1 2 -9 -13 -5 1 -7
42 -6 33 0 59 5 55 10 -3 5 0 6 6 2 13 -8 72 20 89 43 7 9 11 21 8 28 -2 6 1
14 8 17 7 2 5 5 -4 5 -10 1 -19 -9 -23 -23 -3 -14 -19 -29 -38 -37 -43 -18
-140 -18 -161 0 -19 15 -24 86 -7 96 5 3 31 -3 57 -15 67 -30 141 -38 149 -16
3 9 10 14 14 11 5 -3 11 -1 15 4 3 6 -3 8 -15 6 -11 -2 -20 1 -20 6 0 6 -5 7
-10 4 -6 -4 -8 -10 -6 -14 3 -4 -1 -8 -9 -8 -8 0 -15 4 -15 8 0 4 -9 5 -20 2
-13 -4 -27 1 -36 13 -9 11 -13 13 -9 7 7 -14 -4 -16 -30 -7 -9 4 -12 9 -7 13
6 3 -9 7 -33 8 -35 1 -45 -3 -55 -22z"/>
<path d="M3041 3124 c0 -11 3 -14 6 -6 3 7 2 16 -1 19 -3 4 -6 -2 -5 -13z"/>
<path d="M3070 3105 c0 -5 5 -17 10 -25 5 -8 10 -10 10 -5 0 6 -5 17 -10 25
-5 8 -10 11 -10 5z"/>
<path d="M4092 3052 c0 -9 -3 -26 -8 -37 -7 -17 -6 -18 8 -5 9 8 14 18 12 22
-2 3 0 8 5 10 5 1 3 9 -4 15 -11 10 -14 9 -13 -5z"/>
<path d="M3056 3033 c-6 -14 -5 -15 5 -6 7 7 10 15 7 18 -3 3 -9 -2 -12 -12z"/>
<path d="M2302 3033 c-13 -5 -7 -23 9 -23 6 0 7 5 3 11 -4 7 -1 10 7 7 8 -3
13 -16 12 -29 -2 -21 -2 -22 8 -6 8 13 7 22 -1 33 -13 15 -17 16 -38 7z"/>
<path d="M3021 3014 c0 -11 3 -14 6 -6 3 7 2 16 -1 19 -3 4 -6 -2 -5 -13z"/>
<path d="M4611 3014 c0 -11 3 -14 6 -6 3 7 2 16 -1 19 -3 4 -6 -2 -5 -13z"/>
<path d="M2004 3009 c-3 -6 -1 -16 6 -22 10 -9 11 -9 5 2 -4 8 -2 17 6 22 9 6
10 9 2 9 -6 0 -15 -5 -19 -11z"/>
<path d="M3982 3000 c0 -14 2 -19 5 -12 2 6 2 18 0 25 -3 6 -5 1 -5 -13z"/>
<path d="M1737 2961 c-4 -17 -3 -21 5 -13 5 5 8 16 6 23 -3 8 -7 3 -11 -10z"/>
<path d="M3030 2969 c0 -5 5 -7 10 -4 6 3 10 8 10 11 0 2 -4 4 -10 4 -5 0 -10
-5 -10 -11z"/>
<path d="M3013 2945 c0 -8 4 -12 9 -9 5 3 6 10 3 15 -9 13 -12 11 -12 -6z"/>
<path d="M1994 2941 c4 -6 2 -11 -3 -11 -6 0 -11 -4 -11 -9 0 -5 27 -17 60
-27 50 -15 60 -22 60 -40 0 -30 26 -90 62 -142 62 -90 221 -227 293 -254 34
-12 35 -13 35 -68 0 -51 -2 -57 -36 -83 l-35 -29 -67 59 c-126 112 -243 276
-311 438 -53 127 -54 129 -77 134 -16 3 -17 1 -4 -14 15 -18 41 -80 42 -102 1
-7 4 -10 8 -8 4 2 13 -15 19 -38 7 -23 17 -49 22 -57 31 -52 47 -94 42 -108
-4 -14 -3 -15 6 -2 5 8 13 11 17 7 4 -3 1 -15 -7 -24 -12 -16 -12 -17 1 -6 13
10 19 6 35 -22 10 -19 22 -35 27 -35 4 0 8 -13 8 -29 0 -17 5 -33 11 -37 8 -4
9 1 5 17 -6 22 -5 22 18 -6 14 -16 26 -36 26 -43 0 -7 5 -10 10 -7 6 3 10 -1
10 -9 0 -10 6 -13 15 -10 21 8 19 -13 -2 -25 -10 -6 -13 -11 -6 -11 6 0 15 5
18 10 3 6 11 10 17 10 6 0 3 -9 -7 -20 -11 -12 -25 -18 -34 -15 -12 5 -13 3
-5 -5 9 -9 18 -8 38 5 27 18 31 14 27 -25 -2 -13 -1 -13 8 0 5 8 7 19 4 25 -3
5 10 -6 28 -25 35 -36 72 -49 84 -30 3 5 11 10 16 10 6 0 7 -5 3 -12 -4 -7 -3
-8 5 -4 6 4 9 11 6 15 -2 5 7 19 22 32 14 13 23 18 19 12 -5 -9 -2 -11 10 -6
14 5 15 8 3 17 -18 14 -21 48 -6 58 9 6 9 8 0 8 -7 0 -13 12 -13 28 0 23 -8
31 -51 51 -39 17 -48 26 -38 33 10 7 8 8 -7 3 -16 -4 -23 0 -27 16 -4 14 -11
20 -20 16 -9 -3 -25 6 -38 20 l-24 25 25 -6 c21 -6 22 -5 7 4 -9 6 -21 9 -26
5 -5 -3 -12 -1 -16 5 -3 5 1 10 10 10 9 0 13 5 10 10 -5 8 -12 7 -22 -2 -12
-10 -18 -8 -33 12 -10 14 -16 29 -13 34 3 5 2 7 -3 4 -11 -7 -35 17 -27 26 4
3 0 6 -9 6 -19 0 -43 44 -32 62 6 11 5 11 -8 0 -13 -10 -17 -10 -22 3 -4 10
-2 14 5 9 6 -3 4 4 -4 17 -8 13 -18 39 -22 56 -4 18 -15 39 -26 46 -10 8 -16
16 -13 20 3 3 -4 3 -16 0 -14 -4 -33 2 -52 17 -17 12 -28 18 -24 11z"/>
<path d="M2110 2940 c-9 -6 -10 -10 -3 -10 6 0 15 5 18 10 8 12 4 12 -15 0z"/>
<path d="M4058 2930 c-13 -51 26 -180 54 -180 4 0 8 -7 8 -16 0 -9 -5 -12 -12
-8 -7 4 -8 3 -4 -5 4 -6 11 -9 16 -6 7 4 66 -60 101 -112 8 -13 19 -20 24 -16
4 5 6 1 2 -8 -4 -13 -1 -16 15 -11 12 3 19 1 15 -4 -3 -6 4 -11 15 -11 12 -1
24 -7 28 -13 4 -7 9 -11 11 -11 2 1 18 -3 35 -9 25 -9 31 -16 30 -37 -1 -14 5
-27 12 -29 7 -1 8 0 2 3 -16 8 -12 23 8 24 14 0 14 2 -3 9 -23 10 -21 11 23
15 74 6 63 45 -18 65 -27 6 -54 18 -61 26 -6 8 -18 14 -26 14 -8 0 -11 5 -8
10 3 6 1 10 -4 10 -13 0 -51 36 -45 42 2 3 -8 11 -22 18 -16 9 -24 20 -21 32
3 9 0 16 -6 15 -18 -3 -78 95 -71 118 4 16 3 17 -5 5 -8 -12 -12 -9 -20 13 -6
16 -11 36 -11 45 0 15 -2 15 -10 2 -8 -13 -10 -13 -10 2 0 9 -4 20 -10 23 -15
9 16 -71 52 -134 47 -83 115 -169 162 -203 50 -37 119 -68 152 -68 13 0 24 -5
24 -11 0 -18 -71 -5 -136 25 -103 47 -262 240 -265 321 -1 16 -4 41 -8 55 l-7
25 -6 -25z"/>
<path d="M4360 2931 c0 -5 5 -13 10 -16 6 -3 10 -2 10 4 0 5 -4 13 -10 16 -5
3 -10 2 -10 -4z"/>
<path d="M2840 2911 c0 -5 5 -13 10 -16 6 -3 10 -2 10 4 0 5 -4 13 -10 16 -5
3 -10 2 -10 -4z"/>
<path d="M2140 2870 c-8 -5 -10 -10 -5 -10 6 0 17 5 25 10 8 5 11 10 5 10 -5
0 -17 -5 -25 -10z"/>
<path d="M2191 2854 c0 -11 3 -14 6 -6 3 7 2 16 -1 19 -3 4 -6 -2 -5 -13z"/>
<path d="M2836 2815 c-9 -26 -7 -32 5 -12 6 10 9 21 6 23 -2 3 -7 -2 -11 -11z"/>
<path d="M2780 2806 c0 -2 8 -10 18 -17 15 -13 16 -12 3 4 -13 16 -21 21 -21
13z"/>
<path d="M2185 2790 c3 -5 8 -10 11 -10 2 0 4 5 4 10 0 6 -5 10 -11 10 -5 0
-7 -4 -4 -10z"/>
<path d="M1090 2746 c0 -2 8 -10 18 -17 15 -13 16 -12 3 4 -13 16 -21 21 -21
13z"/>
<path d="M2011 2734 c0 -11 3 -14 6 -6 3 7 2 16 -1 19 -3 4 -6 -2 -5 -13z"/>
<path d="M2627 2729 c7 -7 15 -10 18 -7 3 3 -2 9 -12 12 -14 6 -15 5 -6 -5z"/>
<path d="M2709 2723 c-13 -16 -12 -17 4 -4 9 7 17 15 17 17 0 8 -8 3 -21 -13z"/>
<path d="M1150 2700 c0 -5 5 -10 11 -10 5 0 7 5 4 10 -3 6 -8 10 -11 10 -2 0
-4 -4 -4 -10z"/>
<path d="M2695 2690 c-3 -6 1 -7 9 -4 18 7 21 14 7 14 -6 0 -13 -4 -16 -10z"/>
<path d="M4296 2687 c3 -10 9 -15 12 -12 3 3 0 11 -7 18 -10 9 -11 8 -5 -6z"/>
<path d="M2995 2670 c3 -5 8 -10 11 -10 2 0 4 5 4 10 0 6 -5 10 -11 10 -5 0
-7 -4 -4 -10z"/>
<path d="M3610 2670 c0 -5 5 -10 10 -10 6 0 10 5 10 10 0 6 -4 10 -10 10 -5 0
-10 -4 -10 -10z"/>
<path d="M2050 2665 c0 -5 5 -17 10 -25 5 -8 10 -10 10 -5 0 6 -5 17 -10 25
-5 8 -10 11 -10 5z"/>
<path d="M2990 2641 c0 -6 4 -13 10 -16 6 -3 7 1 4 9 -7 18 -14 21 -14 7z"/>
<path d="M3495 2628 c-11 -6 -27 -12 -36 -13 -17 -1 -56 -30 -78 -58 -12 -15
-12 -17 3 -11 12 5 15 2 9 -12 -4 -11 -3 -15 5 -10 12 7 25 -10 27 -37 2 -23
22 -44 22 -22 0 8 -4 15 -9 15 -4 0 -8 6 -8 13 1 6 10 1 20 -12 17 -19 18 -27
8 -40 -10 -13 -10 -14 2 -3 12 10 19 7 42 -19 15 -16 28 -40 28 -52 0 -32 -11
-67 -19 -62 -4 2 -7 -6 -7 -18 1 -15 -5 -22 -16 -21 -10 1 -18 -4 -18 -10 0
-7 -10 -12 -22 -11 -33 3 -57 -15 -78 -55 -31 -60 -17 -70 98 -70 107 0 135
11 146 56 6 22 9 24 23 12 14 -11 15 -10 9 9 -4 12 -2 24 4 28 6 3 8 10 5 15
-3 5 -1 11 5 15 5 3 10 1 10 -6 0 -7 3 -9 6 -6 4 4 2 13 -4 20 -9 10 -7 19 8
34 10 12 16 24 13 27 -4 3 -1 6 5 6 7 0 11 3 10 8 -3 16 15 63 29 70 11 7 10
13 -9 33 -13 13 -36 34 -52 47 -23 17 -27 25 -18 34 7 7 12 16 12 22 0 5 -7 1
-16 -10 -13 -15 -15 -16 -10 -2 3 11 0 15 -7 12 -12 -4 -64 70 -60 85 3 12
-61 11 -82 -1z m79 -54 c30 -48 84 -105 123 -131 l22 -15 -70 -139 -70 -139
-67 0 c-37 0 -84 -3 -105 -6 -34 -6 -37 -5 -31 12 13 36 47 64 78 64 17 0 36
4 42 8 20 13 45 72 51 122 5 47 4 50 -43 102 -26 29 -59 65 -73 80 -13 15 -22
30 -19 34 6 6 119 53 128 54 3 0 18 -21 34 -46z"/>
<path d="M3522 2561 c-11 -7 -11 -9 0 -14 9 -3 15 1 15 9 0 8 -1 14 -1 14 -1
0 -7 -4 -14 -9z"/>
<path d="M3590 2481 c0 -6 4 -13 10 -16 6 -3 7 1 4 9 -7 18 -14 21 -14 7z"/>
<path d="M3562 2420 c7 -10 14 -18 15 -16 6 6 -9 36 -18 36 -5 0 -4 -9 3 -20z"/>
<path d="M3595 2401 c-3 -5 -2 -12 3 -15 5 -3 9 1 9 9 0 17 -3 19 -12 6z"/>
<path d="M1235 2610 c-10 -11 -14 -20 -9 -20 5 0 15 9 22 20 7 11 11 20 9 20
-2 0 -12 -9 -22 -20z"/>
<path d="M1613 2603 c9 -2 25 -2 35 0 9 3 1 5 -18 5 -19 0 -27 -2 -17 -5z"/>
<path d="M4568 2603 c7 -3 16 -2 19 1 4 3 -2 6 -13 5 -11 0 -14 -3 -6 -6z"/>
<path d="M4693 2603 c9 -2 23 -2 30 0 6 3 -1 5 -18 5 -16 0 -22 -2 -12 -5z"/>
<path d="M2170 2586 c0 -2 7 -9 15 -16 9 -7 15 -8 15 -2 0 5 -7 12 -15 16 -8
3 -15 4 -15 2z"/>
<path d="M4710 2580 c-8 -5 -35 -10 -60 -10 -55 -1 -76 -15 -82 -57 -4 -30 -3
-32 49 -48 30 -10 57 -14 60 -11 4 3 -2 6 -13 6 -16 0 -17 2 -4 10 22 14 43
12 34 -2 -4 -8 -3 -10 2 -5 5 5 9 14 9 20 1 7 7 11 15 9 8 -2 12 0 8 4 -4 4 5
18 20 32 15 13 20 22 11 19 -8 -3 -26 1 -40 9 l-24 14 25 -3 c14 -2 19 -2 11
0 -12 4 -12 6 0 14 8 5 10 9 4 9 -5 0 -17 -5 -25 -10z m0 -39 l25 -7 -35 -22
c-20 -12 -51 -22 -72 -22 -32 0 -38 3 -38 20 0 33 60 48 120 31z"/>
<path d="M4785 2580 c-3 -5 -1 -10 4 -10 6 0 11 5 11 10 0 6 -2 10 -4 10 -3 0
-8 -4 -11 -10z"/>
<path d="M2420 2569 c0 -5 5 -7 10 -4 6 3 10 8 10 11 0 2 -4 4 -10 4 -5 0 -10
-5 -10 -11z"/>
<path d="M2446 2562 c-2 -4 4 -8 14 -8 10 0 16 4 14 8 -3 4 -9 8 -14 8 -5 0
-11 -4 -14 -8z"/>
<path d="M3286 2552 c-3 -4 4 -9 15 -9 23 -2 25 3 4 10 -8 4 -16 3 -19 -1z"/>
<path d="M1285 2530 c-3 -5 -2 -10 4 -10 5 0 13 5 16 10 3 6 2 10 -4 10 -5 0
-13 -4 -16 -10z"/>
<path d="M3254 2520 c-17 -16 -188 -61 -223 -58 -32 2 -51 -8 -51 -28 0 -8 -4
-14 -9 -14 -5 0 -8 -6 -8 -12 2 -20 -45 -163 -55 -166 -4 -2 -5 -8 -2 -13 3
-6 0 -24 -7 -40 -21 -52 -5 -58 161 -59 80 -1 157 -1 173 0 19 0 31 7 39 25 6
13 14 23 17 20 4 -2 8 5 9 16 4 44 6 49 18 49 6 0 14 9 17 20 5 21 71 55 91
47 24 -9 14 49 -14 84 -21 26 -26 39 -18 47 8 8 8 15 0 25 -9 10 -9 16 0 25 8
8 9 12 1 12 -6 0 -14 -7 -17 -16 -5 -14 -9 -14 -24 -3 -16 13 -16 13 -2 -6 14
-19 14 -19 -2 -6 -10 7 -18 20 -18 28 0 8 -5 11 -12 7 -7 -5 -9 -2 -6 7 6 16
-43 24 -58 9z m74 -62 c22 -29 52 -65 66 -80 30 -32 33 -48 8 -48 -54 0 -142
-98 -142 -159 0 -21 -3 -21 -176 -21 -164 0 -176 1 -169 18 14 31 75 233 75
246 0 9 31 19 93 30 51 10 116 28 143 41 27 13 52 24 55 24 4 1 25 -23 47 -51z
m57 -17 c-9 -16 -25 -3 -18 15 4 10 9 12 15 6 6 -6 7 -15 3 -21z"/>
<path d="M3328 2383 c7 -3 16 -2 19 1 4 3 -2 6 -13 5 -11 0 -14 -3 -6 -6z"/>
<path d="M1310 2516 c0 -2 7 -7 16 -10 8 -3 12 -2 9 4 -6 10 -25 14 -25 6z"/>
<path d="M2310 2511 c0 -5 7 -12 16 -15 14 -5 15 -4 4 9 -14 17 -20 19 -20 6z"/>
<path d="M2440 2506 c0 -2 7 -9 15 -16 9 -7 15 -8 15 -2 0 5 -7 12 -15 16 -8
3 -15 4 -15 2z"/>
<path d="M2283 2481 c0 -11 5 -18 9 -15 4 3 5 11 1 19 -7 21 -12 19 -10 -4z"/>
<path d="M3744 2459 c-3 -6 -2 -15 3 -20 5 -5 9 -1 9 11 0 23 -2 24 -12 9z"/>
<path d="M4500 2450 c-13 -9 -13 -10 0 -10 8 0 22 5 30 10 13 9 13 10 0 10 -8
0 -22 -5 -30 -10z"/>
<path d="M4710 2450 c-9 -6 -10 -10 -3 -10 6 0 15 5 18 10 8 12 4 12 -15 0z"/>
<path d="M2417 2439 c7 -7 15 -10 18 -7 3 3 -2 9 -12 12 -14 6 -15 5 -6 -5z"/>
<path d="M3866 2435 c10 -8 24 -14 29 -14 6 0 1 6 -9 14 -11 8 -24 15 -30 15
-5 0 -1 -7 10 -15z"/>
<path d="M4356 2434 c-9 -24 -2 -26 12 -4 7 11 8 20 3 20 -5 0 -12 -7 -15 -16z"/>
<path d="M1848 2423 c7 -3 16 -2 19 1 4 3 -2 6 -13 5 -11 0 -14 -3 -6 -6z"/>
<path d="M3847 2419 c7 -7 15 -10 18 -7 3 3 -2 9 -12 12 -14 6 -15 5 -6 -5z"/>
<path d="M3481 2407 c2 -1 12 -9 22 -16 15 -12 17 -12 11 3 -3 9 -13 16 -22
16 -8 0 -13 -1 -11 -3z"/>
<path d="M3926 2397 c3 -10 9 -15 12 -12 3 3 0 11 -7 18 -10 9 -11 8 -5 -6z"/>
<path d="M3730 2389 c0 -5 5 -7 10 -4 6 3 10 8 10 11 0 2 -4 4 -10 4 -5 0 -10
-5 -10 -11z"/>
<path d="M3830 2389 c0 -6 -5 -7 -12 -3 -6 4 -8 3 -5 -3 3 -5 -7 -29 -24 -54
-16 -24 -29 -53 -29 -63 0 -13 9 -5 30 25 16 24 30 50 30 57 0 16 20 15 43 -2
21 -16 22 -26 3 -26 -17 0 -73 -45 -86 -70 -6 -11 15 -2 54 24 35 22 63 47 62
54 -3 16 -66 75 -66 61z"/>
<path d="M3970 2311 c0 -8 -8 -10 -22 -6 -21 5 -21 5 -5 -6 20 -11 48 3 34 18
-4 3 -7 1 -7 -6z"/>
<path d="M2585 2290 c-3 -5 -1 -10 4 -10 6 0 11 5 11 10 0 6 -2 10 -4 10 -3 0
-8 -4 -11 -10z"/>
<path d="M3343 2264 c-3 -8 -2 -19 3 -24 5 -5 9 1 9 16 0 28 -3 30 -12 8z"/>
<path d="M3945 2270 c3 -5 8 -10 11 -10 2 0 4 5 4 10 0 6 -5 10 -11 10 -5 0
-7 -4 -4 -10z"/>
<path d="M5003 2253 c9 -2 23 -2 30 0 6 3 -1 5 -18 5 -16 0 -22 -2 -12 -5z"/>
<path d="M3806 2242 c-3 -5 1 -9 9 -9 8 0 15 4 15 9 0 4 -4 8 -9 8 -6 0 -12
-4 -15 -8z"/>
<path d="M2129 2221 c8 -5 10 -14 6 -22 -6 -11 -5 -11 5 -2 14 12 6 33 -13 33
-8 0 -7 -3 2 -9z"/>
<path d="M2820 2175 c0 -8 2 -15 4 -15 2 0 6 7 10 15 3 8 1 15 -4 15 -6 0 -10
-7 -10 -15z"/>
<path d="M3621 2164 c0 -11 3 -14 6 -6 3 7 2 16 -1 19 -3 4 -6 -2 -5 -13z"/>
<path d="M3408 2103 c6 -2 18 -2 25 0 6 3 1 5 -13 5 -14 0 -19 -2 -12 -5z"/>
<path d="M998 2083 c6 -2 18 -2 25 0 6 3 1 5 -13 5 -14 0 -19 -2 -12 -5z"/>
<path d="M1958 2083 c12 -2 32 -2 45 0 12 2 2 4 -23 4 -25 0 -35 -2 -22 -4z"/>
<path d="M4580 1995 c-132 -12 -258 -28 -318 -41 -13 -3 -21 -1 -18 4 3 5 -6
7 -19 4 -14 -2 -22 -8 -19 -13 3 -5 -16 -10 -43 -11 -61 -2 -85 -4 -153 -12
-30 -4 -89 -11 -130 -15 -41 -5 -82 -9 -90 -10 -8 -1 -346 -4 -750 -6 -404 -2
-825 -7 -935 -11 -372 -13 -808 -14 -824 -1 -11 9 -13 9 -8 0 5 -7 -1 -10 -16
-9 -20 3 -23 -1 -21 -23 1 -14 12 -33 23 -42 11 -9 17 -20 13 -23 -3 -4 1 -4
10 -1 9 4 18 0 21 -9 4 -9 15 -16 25 -16 11 0 25 -7 32 -15 7 -8 19 -15 28
-15 8 0 12 -3 9 -7 -4 -3 1 -12 11 -19 25 -19 41 -16 17 3 -18 14 -18 15 -2 9
10 -3 21 -6 23 -6 10 0 3 -29 -8 -33 -7 -2 -1 -4 14 -3 14 0 24 4 21 9 -8 13
8 8 35 -12 15 -10 39 -21 55 -25 15 -3 27 -11 27 -16 0 -6 9 -10 20 -10 11 0
20 -4 20 -10 0 -5 7 -6 17 -3 12 5 14 3 8 -7 -6 -10 -4 -12 8 -7 8 3 28 2 44
-3 102 -34 195 -59 235 -65 30 -5 45 -11 41 -18 -4 -6 0 -8 11 -4 9 4 49 0 89
-9 40 -8 92 -17 117 -20 25 -3 81 -9 125 -14 44 -5 105 -11 135 -13 30 -3 57
-6 60 -7 9 -4 464 0 505 5 22 2 87 7 145 10 58 4 172 17 255 31 82 14 158 23
168 20 11 -2 16 -2 12 2 -7 8 205 53 216 46 5 -3 20 3 34 12 14 9 34 14 45 11
11 -3 18 -2 15 3 -7 11 208 62 231 54 14 -4 15 -3 5 4 -16 11 -7 17 39 27 19
4 44 12 55 19 11 7 40 18 65 26 25 8 56 20 70 27 14 7 33 13 43 13 9 0 17 5
17 11 0 6 9 8 20 4 13 -4 20 -2 20 7 0 8 17 20 38 27 20 8 45 20 55 29 9 8 17
12 17 7 0 -4 6 -2 14 4 11 9 15 9 19 -1 3 -8 6 -5 6 6 1 11 4 17 7 13 3 -3 18
5 32 19 15 13 31 23 36 21 5 -2 20 7 34 20 14 13 27 21 30 18 3 -2 11 3 19 13
8 9 11 11 7 3 -5 -9 -3 -12 5 -7 6 4 9 11 6 16 -3 5 3 11 12 13 17 4 17 5 0 6
-10 0 -53 -20 -94 -45 -97 -59 -272 -146 -360 -180 -583 -222 -1257 -325
-1858 -284 -435 30 -752 105 -1030 244 -98 50 -225 126 -225 136 0 3 159 5
352 5 778 1 2062 16 2198 26 80 6 280 28 445 49 165 21 338 41 385 45 121 8
170 16 170 26 0 11 -33 10 -220 -6z"/>
<path d="M4568 1933 c7 -3 16 -2 19 1 4 3 -2 6 -13 5 -11 0 -14 -3 -6 -6z"/>
<path d="M4790 1920 c-8 -5 -10 -10 -5 -10 6 0 17 5 25 10 8 5 11 10 5 10 -5
0 -17 -5 -25 -10z"/>
<path d="M1558 1903 c7 -3 16 -2 19 1 4 3 -2 6 -13 5 -11 0 -14 -3 -6 -6z"/>
<path d="M1245 1890 c3 -5 8 -10 11 -10 2 0 4 5 4 10 0 6 -5 10 -11 10 -5 0
-7 -4 -4 -10z"/>
<path d="M1528 1883 c6 -2 18 -2 25 0 6 3 1 5 -13 5 -14 0 -19 -2 -12 -5z"/>
<path d="M927 1816 c-4 -10 -5 -21 -2 -24 9 -9 17 6 13 25 -3 17 -4 17 -11 -1z"/>
<path d="M4145 1720 c-16 -7 -17 -9 -3 -9 9 -1 20 4 23 9 7 11 7 11 -20 0z"/>
<path d="M1410 1490 c-8 -5 -10 -10 -5 -10 6 0 17 5 25 10 8 5 11 10 5 10 -5
0 -17 -5 -25 -10z"/>
<path d="M2168 1453 c7 -3 16 -2 19 1 4 3 -2 6 -13 5 -11 0 -14 -3 -6 -6z"/>
<path d="M1898 1303 c7 -3 16 -2 19 1 4 3 -2 6 -13 5 -11 0 -14 -3 -6 -6z"/>
<path d="M4218 4213 c7 -3 16 -2 19 1 4 3 -2 6 -13 5 -11 0 -14 -3 -6 -6z"/>
<path d="M1125 3510 c-4 -6 -11 -7 -17 -4 -7 4 -8 2 -4 -5 6 -9 11 -9 22 0 14
11 18 19 10 19 -3 0 -8 -5 -11 -10z"/>
<path d="M1080 3491 c0 -10 19 -25 25 -20 1 2 -3 10 -11 17 -8 7 -14 8 -14 3z"/>
<path d="M1056 3463 c-6 -14 -5 -15 5 -6 7 7 10 15 7 18 -3 3 -9 -2 -12 -12z"/>
<path d="M4387 2309 c7 -7 15 -10 18 -7 3 3 -2 9 -12 12 -14 6 -15 5 -6 -5z"/>
<path d="M5241 2214 c0 -11 3 -14 6 -6 3 7 2 16 -1 19 -3 4 -6 -2 -5 -13z"/>
<path d="M795 2069 c-4 -6 -5 -12 -2 -15 2 -3 7 2 10 11 7 17 1 20 -8 4z"/>
<path d="M5119 1863 c-13 -16 -12 -17 4 -4 9 7 17 15 17 17 0 8 -8 3 -21 -13z"/>
<path d="M5146 1853 c-6 -14 -5 -15 5 -6 7 7 10 15 7 18 -3 3 -9 -2 -12 -12z"/>
<path d="M4946 1711 c-3 -5 2 -15 12 -22 15 -13 16 -12 4 3 -10 13 -10 17 0
21 9 4 9 6 1 6 -6 1 -14 -3 -17 -8z"/>
<path d="M885 1680 c-3 -6 1 -7 9 -4 18 7 21 14 7 14 -6 0 -13 -4 -16 -10z"/>
<path d="M1100 1519 c0 -5 5 -7 10 -4 6 3 10 8 10 11 0 2 -4 4 -10 4 -5 0 -10
-5 -10 -11z"/>
<path d="M1220 1450 c-8 -5 -10 -10 -5 -10 6 0 17 5 25 10 8 5 11 10 5 10 -5
0 -17 -5 -25 -10z"/>
</g>
</svg>
